<?xml version="1.0" standalone="no"?>
<!DOCTYPE svg PUBLIC "-//W3C//DTD SVG 20010904//EN"
 "http://www.w3.org/TR/2001/REC-SVG-20010904/DTD/svg10.dtd">
<svg version="1.0" xmlns="http://www.w3.org/2000/svg"
 width="920.000000pt" height="736.000000pt" viewBox="0 0 920.000000 736.000000"
 preserveAspectRatio="xMidYMid meet">

<g transform="translate(0.000000,736.000000) scale(0.100000,-0.100000)"
fill="#000000" stroke="none">
<path d="M6255 4985 c43 -120 65 -409 46 -615 -23 -253 -63 -393 -192 -685
-156 -354 -154 -346 -254 -1080 -61 -444 -132 -676 -244 -794 -70 -74 -119
-96 -216 -96 -71 0 -88 4 -147 33 -41 20 -82 50 -107 78 -72 82 -141 239 -191
434 -68 266 -214 592 -303 678 l-34 33 -40 -44 c-96 -104 -210 -368 -303 -702
-82 -296 -161 -421 -307 -487 -51 -23 -159 -31 -218 -15 -29 8 76 -98 980
-992 l170 -168 105 13 c843 109 1617 560 2119 1237 346 467 577 1081 607 1617
l6 95 -742 740 c-409 407 -739 731 -735 720z"/>
</g>
</svg>