<?xml version="1.0" standalone="no"?>
<!DOCTYPE svg PUBLIC "-//W3C//DTD SVG 20010904//EN"
 "http://www.w3.org/TR/2001/REC-SVG-20010904/DTD/svg10.dtd">
<svg version="1.0" xmlns="http://www.w3.org/2000/svg"
 width="348.000000pt" height="331.000000pt" viewBox="0 0 348.000000 331.000000"
 preserveAspectRatio="xMidYMid meet">

<g transform="translate(0.000000,331.000000) scale(0.100000,-0.100000)"
fill="#000000" stroke="none">
<path d="M2438 3013 c6 -2 18 -2 25 0 6 3 1 5 -13 5 -14 0 -19 -2 -12 -5z"/>
<path d="M2469 2983 c-7 -15 -16 -84 -20 -153 -4 -69 -8 -128 -8 -132 -1 -11
-31 -10 -31 0 0 4 6 14 13 21 10 11 10 13 0 7 -7 -4 -13 -3 -13 2 0 6 -10 7
-22 4 -23 -6 -23 -6 2 -12 l25 -6 -22 -12 c-22 -12 -85 -5 -65 7 5 3 -32 7
-84 9 -122 4 -185 -13 -327 -85 -106 -54 -116 -57 -187 -58 -73 0 -79 2 -203
65 -127 64 -128 64 -226 68 -72 3 -114 0 -157 -13 -177 -51 -308 -182 -360
-360 -47 -159 -5 -437 130 -853 31 -95 67 -232 81 -309 32 -174 57 -259 103
-348 31 -59 132 -196 179 -243 7 -7 13 -18 13 -23 0 -6 3 -8 8 -6 10 7 32 -19
24 -27 -3 -4 1 -4 9 -1 9 3 22 -2 30 -12 13 -17 13 -17 -6 -3 -19 14 -19 14
-6 -2 7 -10 17 -15 22 -12 10 6 131 -71 272 -172 49 -35 93 -64 98 -64 5 0 9
222 9 528 0 290 3 564 7 610 l6 83 30 -28 c83 -79 159 -224 197 -378 23 -94
32 -257 18 -345 -6 -41 -6 -40 8 10 22 81 29 265 15 356 -33 201 -150 422
-251 474 -88 45 -152 14 -229 -112 -148 -240 -187 -461 -126 -718 15 -63 29
-136 32 -162 5 -43 3 -48 -14 -48 -45 0 -197 166 -267 293 -47 85 -90 218
-116 361 -21 115 -43 199 -124 461 -118 382 -130 619 -39 775 44 75 120 147
192 183 61 30 72 32 171 32 l105 0 145 -70 c137 -66 149 -70 215 -70 66 0 78
4 210 67 102 50 157 70 205 77 132 18 254 -23 348 -118 105 -107 137 -210 129
-411 -7 -166 -26 -250 -117 -524 -43 -130 -85 -284 -110 -403 -45 -214 -66
-281 -111 -362 -64 -115 -194 -253 -276 -295 -40 -20 -40 -25 -7 -62 14 -16
34 -45 44 -65 10 -19 26 -41 34 -48 9 -7 13 -17 10 -22 -12 -20 32 -7 86 26
153 93 353 262 453 384 65 78 147 192 147 203 0 4 13 26 29 50 54 81 170 333
215 468 130 394 152 767 61 1020 -50 137 -120 256 -200 335 -43 42 -174 135
-192 135 -6 0 -35 11 -64 24 -30 13 -73 27 -96 31 -40 6 -44 5 -54 -22z m29 3
c-7 -8 -15 -12 -17 -11 -5 6 10 25 20 25 5 0 4 -6 -3 -14z"/>
<path d="M2402 2840 l1 -95 9 74 c7 49 7 80 0 95 -8 16 -10 -2 -10 -74z"/>
<path d="M2043 2419 c-23 -4 -86 -22 -139 -39 -54 -17 -126 -34 -161 -37 l-64
-6 50 -18 c28 -9 59 -24 71 -32 21 -14 21 -15 -9 -25 -17 -6 -31 -13 -31 -16
0 -11 84 21 182 70 59 29 125 57 148 60 36 6 61 26 49 39 -10 9 -57 11 -96 4z"/>
</g>
</svg>
